HIERARCHY
ROOT Hips
{
	OFFSET -0.001795 -0.223333 0.028219
	CHANNELS 6 Xposition Yposition Zposition Zrotation Yrotation Xrotation 
	JOINT LeftUpLeg
	{
		OFFSET 0.069520 -0.091406 -0.006815
		CHANNELS 3 Zrotation Yrotation Xrotation
		JOINT LeftLeg
		{
			OFFSET 0.034277 -0.375199 -0.004496
			CHANNELS 3 Zrotation Yrotation Xrotation
			JOINT LeftFoot
			{
				OFFSET -0.013596 -0.397961 -0.043693
				CHANNELS 3 Zrotation Yrotation Xrotation
				JOINT LeftToe
				{
					OFFSET 0.026358 -0.055791 0.119288
					CHANNELS 3 Zrotation Yrotation Xrotation
					End Site
					{
						OFFSET 0.000000 0.000000 0.000000
					}
				}
			}
		}
	}
	JOINT RightUpLeg
	{
		OFFSET -0.067670 -0.090522 -0.004320
		CHANNELS 3 Zrotation Yrotation Xrotation
		JOINT RightLeg
		{
			OFFSET -0.038290 -0.382569 -0.008850
			CHANNELS 3 Zrotation Yrotation Xrotation
			JOINT RightFoot
			{
				OFFSET 0.015774 -0.398415 -0.042312
				CHANNELS 3 Zrotation Yrotation Xrotation
				JOINT RightToe
				{
					OFFSET -0.025372 -0.048144 0.123348
					CHANNELS 3 Zrotation Yrotation Xrotation
					End Site
					{
						OFFSET 0.000000 0.000000 0.000000
					}
				}
			}
		}
	}
	JOINT Spine
	{
		OFFSET -0.002533 0.108963 -0.026696
		CHANNELS 3 Zrotation Yrotation Xrotation
		JOINT Spine1
		{
			OFFSET 0.005487 0.135180 0.001092
			CHANNELS 3 Zrotation Yrotation Xrotation
			JOINT Spine2
			{
				OFFSET 0.001457 0.052922 0.025425
				CHANNELS 3 Zrotation Yrotation Xrotation
				JOINT Neck
				{
					OFFSET -0.002778 0.213870 -0.042857
					CHANNELS 3 Zrotation Yrotation Xrotation
					JOINT Head
					{
						OFFSET 0.005152 0.064970 0.051349
						CHANNELS 3 Zrotation Yrotation Xrotation
						End Site
						{
							OFFSET 0.000000 0.000000 0.000000
						}
					}
				}
				JOINT LeftShoulder
				{
					OFFSET 0.078845 0.121749 -0.034090
					CHANNELS 3 Zrotation Yrotation Xrotation
					JOINT LeftArm
					{
						OFFSET 0.090977 0.030469 -0.008868
						CHANNELS 3 Zrotation Yrotation Xrotation
						JOINT LeftForeArm
						{
							OFFSET 0.259612 -0.012772 -0.027456
							CHANNELS 3 Zrotation Yrotation Xrotation
							JOINT LeftHand
							{
								OFFSET 0.249234 0.008986 -0.001171
								CHANNELS 3 Zrotation Yrotation Xrotation
								End Site
								{
									OFFSET 0.000000 0.000000 0.000000
								}
							}
						}
					}
				}
				JOINT RightShoulder
				{
					OFFSET -0.081759 0.118833 -0.038615
					CHANNELS 3 Zrotation Yrotation Xrotation
					JOINT RightArm
					{
						OFFSET -0.096012 0.032551 -0.009143
						CHANNELS 3 Zrotation Yrotation Xrotation
						JOINT RightForeArm
						{
							OFFSET -0.253742 -0.013329 -0.021401
							CHANNELS 3 Zrotation Yrotation Xrotation
							JOINT RightHand
							{
								OFFSET -0.255298 0.007772 -0.005559
								CHANNELS 3 Zrotation Yrotation Xrotation
								End Site
								{
									OFFSET 0.000000 0.000000 0.000000
								}
							}
						}
					}
				}
			}
		}
	}
}
MOTION
Frames: 16
Frame Time: 0.050000
0.000000 0.933572 0.000000 -1.365257 -4.423989 4.097635 8.875715 -0.187832 -11.945564 -9.507494 2.210350 16.776551 15.401467 27.543203 16.117187 0.000000 0.000000 0.000000 -8.526358 1.093481 -21.752861 4.920595 -0.365442 17.786594 -2.685648 -11.376252 15.036711 0.000000 0.000000 0.000000 6.541163 -2.730061 29.509898 -6.361153 1.804179 -31.544340 -2.872409 3.982759 26.674432 17.624369 -7.781820 -30.068958 0.000000 0.000000 0.000000 -28.048701 -19.388360 10.430631 -35.915698 -19.562341 -0.750587 5.834354 -28.240244 -0.256218 0.000000 0.000000 0.000000 38.031280 4.666183 1.563457 42.071236 16.749061 -1.029293 -3.901553 32.927848 0.577848 0.000000 0.000000 0.000000 
-0.001281 0.929889 -0.002905 -1.749730 -5.393013 5.211147 10.231014 -0.003764 -14.237423 -11.390830 3.004134 18.738653 16.544937 29.076962 15.977376 0.000000 0.000000 0.000000 -8.405410 1.333580 -24.634450 5.175664 -0.351763 19.849130 -2.002535 -10.384341 15.230963 0.000000 0.000000 0.000000 6.745108 -2.854359 31.146751 -4.428611 1.448392 -31.992831 -4.390675 3.568575 26.457967 19.193509 -8.614725 -30.569196 0.000000 0.000000 0.000000 -30.046814 -19.927773 11.495363 -34.531860 -21.351031 -0.429950 10.224928 -26.255226 -1.186362 0.000000 0.000000 0.000000 38.455384 5.264869 1.489368 42.505955 16.033030 -1.064106 -5.092030 34.366671 0.226875 0.000000 0.000000 0.000000 
-0.003676 0.923724 -0.006196 -1.752555 -5.247259 5.076553 10.830937 0.105295 -16.055157 -12.324904 3.640752 22.101778 16.781470 29.715011 14.374990 0.000000 0.000000 0.000000 -8.584213 1.402176 -26.777229 5.947162 -0.536817 23.557452 -2.620564 -11.195173 14.236807 0.000000 0.000000 0.000000 7.348235 -3.183649 32.861470 -4.200546 1.413215 -30.568400 -4.642502 1.194533 25.375036 17.890764 -8.121718 -30.623404 0.000000 0.000000 0.000000 -30.825765 -21.117268 13.321469 -32.666044 -24.809703 0.200143 10.577343 -24.949374 -1.184576 0.000000 0.000000 0.000000 37.220119 5.732045 0.674187 42.491510 15.095449 -0.903650 -5.121144 34.785551 0.040715 0.000000 0.000000 0.000000 
-0.007569 0.917595 -0.009987 -1.924729 -6.628613 5.618760 12.130947 0.443201 -18.147406 -13.829003 4.687099 24.890026 17.549552 30.711527 14.400894 0.000000 0.000000 0.000000 -8.526932 1.731476 -29.941378 5.912038 -0.365973 26.795263 -1.578599 -9.161300 12.980108 0.000000 0.000000 0.000000 7.824026 -3.411885 35.840257 -4.635404 1.469504 -31.555812 -5.173566 -0.639390 25.820745 18.449465 -8.246940 -32.544614 0.000000 0.000000 0.000000 -30.595681 -22.380751 15.213759 -31.646276 -27.482237 0.521327 13.440438 -25.044488 -1.760545 0.000000 0.000000 0.000000 37.417541 6.446867 -0.153215 41.690526 14.535711 -0.689594 -5.330583 36.217067 -0.212809 0.000000 0.000000 0.000000 
-0.013081 0.908206 -0.014022 -1.550766 -7.566105 6.034281 12.620370 0.675391 -20.055337 -14.456274 5.471270 27.657813 17.552290 31.026099 12.882167 0.000000 0.000000 0.000000 -9.161354 1.877018 -32.665776 6.705068 -0.504413 29.512731 -2.475866 -10.362462 10.877097 0.000000 0.000000 0.000000 7.921070 -3.480850 38.152013 -3.598708 1.274814 -31.414043 -6.442517 -2.287855 25.179483 18.952378 -8.697579 -32.366091 0.000000 0.000000 0.000000 -32.339534 -24.217185 17.733726 -27.805580 -29.854403 0.510657 15.612463 -24.261548 -2.200506 0.000000 0.000000 0.000000 36.648440 7.401095 -0.442793 41.864036 13.202216 -0.747222 -6.173025 38.208702 -0.691171 0.000000 0.000000 0.000000 
-0.020406 0.899234 -0.018101 -1.212059 -9.024431 6.573185 13.828316 1.138924 -21.899460 -15.967046 6.764945 30.095744 17.815703 31.452263 12.391248 0.000000 0.000000 0.000000 -9.739147 2.131441 -35.572893 7.255262 -0.501838 32.466041 -2.409948 -9.664171 8.541068 0.000000 0.000000 0.000000 8.535414 -3.709696 41.679394 -3.817870 1.284631 -32.946070 -7.608133 -5.060423 24.974057 20.497928 -9.724977 -32.599233 0.000000 0.000000 0.000000 -33.323650 -24.929773 19.917198 -24.957079 -31.392753 0.172968 17.440048 -24.975366 -2.685572 0.000000 0.000000 0.000000 37.059768 8.146801 -1.691918 41.102622 11.201224 -0.814924 -6.344252 40.818564 -1.130646 0.000000 0.000000 0.000000 
-0.029142 0.888207 -0.021651 -1.039208 -10.326182 7.343517 14.814745 1.633569 -23.850080 -16.455311 7.636059 32.224188 18.326497 32.173783 12.129187 0.000000 0.000000 0.000000 -10.054228 2.494123 -38.601417 8.054669 -0.619514 35.003240 -2.589307 -9.590838 6.823894 0.000000 0.000000 0.000000 8.948213 -3.817800 44.745091 -3.291760 1.162653 -33.163575 -8.880370 -7.747642 23.571561 20.929409 -10.608670 -30.463700 0.000000 0.000000 0.000000 -34.200922 -25.252920 21.682725 -21.942197 -32.740892 -0.171185 20.475862 -24.353657 -3.274908 0.000000 0.000000 0.000000 37.026416 9.009792 -2.691453 41.042926 9.130734 -0.845805 -6.984576 44.751666 -1.901703 0.000000 0.000000 0.000000 
-0.038917 0.876241 -0.024125 -0.906513 -11.401732 8.013304 16.071485 2.278307 -25.938160 -17.311526 8.973408 35.471118 18.238233 32.435628 10.454379 0.000000 0.000000 0.000000 -9.936675 3.028244 -41.926406 8.624647 -0.661117 38.540175 -2.652491 -9.296725 5.353643 0.000000 0.000000 0.000000 9.545279 -4.018034 48.004560 -2.898884 1.097453 -34.711280 -10.162395 -10.510426 23.822717 21.490560 -11.584193 -28.893222 0.000000 0.000000 0.000000 -33.818265 -25.423150 22.898235 -19.879088 -32.872478 -0.618498 24.135976 -24.892184 -4.146995 0.000000 0.000000 0.000000 38.064929 9.773726 -3.955199 39.374419 7.375281 -0.807088 -7.679146 48.640043 -2.753047 0.000000 0.000000 0.000000 
-0.048538 0.862792 -0.025020 -1.414133 -13.078488 8.599007 17.851796 3.230560 -27.661816 -17.631563 10.483719 39.467307 17.736095 32.232027 8.121306 0.000000 0.000000 0.000000 -9.423845 3.870376 -45.058712 9.337920 -0.696156 41.283578 -2.263266 -8.515784 5.226869 0.000000 0.000000 0.000000 10.432057 -4.162405 50.641426 -3.208357 1.092307 -35.177131 -10.654289 -13.106871 23.362135 20.485714 -11.790096 -26.924569 0.000000 0.000000 0.000000 -33.920794 -24.901842 23.716276 -17.801649 -32.286541 -1.074912 27.385187 -24.364153 -4.785256 0.000000 0.000000 0.000000 39.073291 10.673936 -5.153491 37.693361 5.435852 -0.755301 -8.720558 52.864607 -3.886452 0.000000 0.000000 0.000000 
-0.057246 0.850770 -0.024799 -1.622623 -13.921947 9.127373 19.609636 4.215938 -29.537368 -18.057159 11.999897 43.529852 16.439073 30.576379 6.339981 0.000000 0.000000 0.000000 -9.370825 4.419613 -47.658808 10.484401 -1.096853 43.997611 -2.561339 -8.947230 4.373168 0.000000 0.000000 0.000000 10.890659 -4.267276 53.227431 -2.635075 0.975839 -34.971568 -11.209105 -15.685780 22.710220 18.938522 -11.421897 -25.580192 0.000000 0.000000 0.000000 -33.255637 -25.233304 24.597682 -16.177511 -31.916367 -1.306811 31.243428 -23.540335 -5.413848 0.000000 0.000000 0.000000 40.117725 11.447246 -6.264999 35.183086 3.838369 -0.604880 -10.881565 57.859395 -5.713954 0.000000 0.000000 0.000000 
-0.064866 0.840103 -0.024268 -1.917476 -14.018854 9.843311 21.161383 5.170859 -31.769252 -17.984874 13.219581 48.158742 15.398418 29.171672 4.930277 0.000000 0.000000 0.000000 -9.488630 4.751501 -50.070003 12.067830 -1.942960 45.846645 -3.512339 -11.310594 4.622276 0.000000 0.000000 0.000000 11.645626 -4.714907 54.796712 -2.437058 0.947542 -35.784077 -12.081749 -17.171516 23.036349 17.054682 -10.678746 -25.231234 0.000000 0.000000 0.000000 -32.632708 -25.146890 24.765646 -13.996671 -31.471069 -1.602265 35.476128 -24.174719 -6.492048 0.000000 0.000000 0.000000 41.436364 11.452782 -7.408352 33.393402 2.393428 -0.650092 -11.450398 60.703826 -6.322109 0.000000 0.000000 0.000000 
-0.071311 0.832742 -0.024257 -1.960974 -12.710482 9.614204 22.399218 5.770283 -33.785313 -18.696735 14.103433 51.345635 16.442611 30.545143 6.219342 0.000000 0.000000 0.000000 -9.631431 4.627541 -51.899279 12.943782 -2.779195 49.095416 -4.148416 -12.982800 5.936544 0.000000 0.000000 0.000000 11.065894 -4.926675 57.197696 -1.633147 0.834341 -35.521716 -10.986495 -17.628832 21.861655 15.008475 -9.467765 -25.555353 0.000000 0.000000 0.000000 -31.251462 -26.120940 24.703768 -12.760536 -31.513386 -1.598688 40.527176 -24.951728 -7.766413 0.000000 0.000000 0.000000 42.327682 11.244656 -7.636344 31.353163 1.696427 -0.658576 -15.336393 63.141214 -8.811817 0.000000 0.000000 0.000000 
-0.077296 0.826779 -0.025148 -2.183338 -10.010903 10.116724 23.944328 6.238148 -36.342292 -19.680113 14.436285 53.530776 16.160575 29.968561 7.236147 0.000000 0.000000 0.000000 -10.261128 3.850191 -53.552126 13.594714 -3.884276 50.620223 -4.503363 -13.609216 6.245961 0.000000 0.000000 0.000000 9.732168 -5.148636 58.226622 -0.300392 0.740806 -36.968320 -10.085373 -15.651375 22.649343 13.256920 -8.123078 -27.241863 0.000000 0.000000 0.000000 -31.442122 -26.906474 24.404802 -10.177689 -32.508447 -1.884064 46.117594 -27.895134 -10.215714 0.000000 0.000000 0.000000 42.105255 9.956533 -6.867068 31.508307 1.568543 -1.161633 -17.315371 63.164417 -9.776034 0.000000 0.000000 0.000000 
-0.083184 0.821842 -0.027032 -2.052073 -4.927229 9.736875 24.627631 5.602781 -38.392952 -20.637002 13.695067 54.682696 15.992584 29.813701 7.953474 0.000000 0.000000 0.000000 -10.988159 2.148492 -54.963258 14.728672 -6.031927 53.444155 -6.892581 -18.297459 8.111575 0.000000 0.000000 0.000000 8.051170 -6.045384 60.319645 0.216984 0.813722 -37.983629 -7.816479 -12.197102 22.474571 11.795833 -6.182435 -30.627255 0.000000 0.000000 0.000000 -30.690960 -28.498596 23.355404 -8.624017 -34.673446 -1.899840 52.375501 -33.990009 -14.675602 0.000000 0.000000 0.000000 40.325822 7.566320 -5.312339 32.288195 2.844650 -1.711715 -18.953899 60.530211 -9.828265 0.000000 0.000000 0.000000 
-0.089236 0.818373 -0.029726 -1.622685 -0.074729 10.004544 25.299042 4.932810 -40.758315 -22.464356 13.235740 53.948660 14.959002 28.188541 9.943854 0.000000 0.000000 0.000000 -12.320221 0.002793 -55.614100 15.235392 -7.745912 54.767040 -7.649116 -19.298290 6.400459 0.000000 0.000000 0.000000 5.112508 -6.006503 60.950536 1.322597 0.801328 -38.606606 -6.285503 -6.572236 21.819618 10.819741 -4.162000 -33.644262 0.000000 0.000000 0.000000 -30.645993 -28.723228 20.770183 -8.219636 -36.781930 -1.693926 60.142749 -42.656558 -22.291693 0.000000 0.000000 0.000000 39.272999 5.694160 -2.530938 33.193881 4.740728 -2.298266 -17.554038 57.448525 -7.605029 0.000000 0.000000 0.000000 
-0.094634 0.815455 -0.032640 -0.839934 6.210066 9.586961 25.351850 3.425052 -42.015417 -23.319066 11.549098 52.425975 12.937518 25.492492 10.434248 0.000000 0.000000 0.000000 -13.139507 -2.489910 -55.006804 15.305900 -9.669866 56.455605 -10.273056 -23.931442 6.572507 0.000000 0.000000 0.000000 2.587823 -6.711144 61.547068 -0.395755 1.038840 -38.435379 -3.970276 -0.760078 21.187594 8.509521 -1.855448 -33.920147 0.000000 0.000000 0.000000 -30.843582 -29.367779 18.043742 -8.196275 -40.680593 -1.292484 68.646353 -53.547312 -34.288772 0.000000 0.000000 0.000000 38.801533 4.371121 0.774576 32.864569 7.432225 -2.687748 -16.292620 53.802942 -5.463262 0.000000 0.000000 0.000000 
